<svg xmlns="http://www.w3.org/2000/svg" xmlns:xlink="http://www.w3.org/1999/xlink" width="800" zoomAndPan="magnify" viewBox="0 0 600 135.000003" height="180" preserveAspectRatio="xMidYMid meet" version="1.0"><defs><g/><clipPath id="e71cb407fe"><path d="M 334.039062 54.421875 L 518.347656 54.421875 L 518.347656 79.261719 L 334.039062 79.261719 Z M 334.039062 54.421875 " clip-rule="nonzero"/></clipPath><clipPath id="066faafaab"><path d="M 340.089844 54.519531 L 512.375 54.519531 C 513.957031 54.519531 515.472656 55.148438 516.589844 56.265625 C 517.707031 57.382812 518.332031 58.894531 518.332031 60.476562 L 518.332031 73.304688 C 518.332031 74.886719 517.707031 76.398438 516.589844 77.515625 C 515.472656 78.632812 513.957031 79.261719 512.375 79.261719 L 340.089844 79.261719 C 338.511719 79.261719 336.996094 78.632812 335.878906 77.515625 C 334.761719 76.398438 334.136719 74.886719 334.136719 73.304688 L 334.136719 60.476562 C 334.136719 58.894531 334.761719 57.382812 335.878906 56.265625 C 336.996094 55.148438 338.511719 54.519531 340.089844 54.519531 Z M 340.089844 54.519531 " clip-rule="nonzero"/></clipPath></defs><g fill="#304945" fill-opacity="1"><g transform="translate(2.787505, 94.92188)"><g><path d="M 0.515625 -57.546875 L 30.59375 -57.546875 L 30.59375 -55.546875 L 29.03125 -55.546875 C 27.582031 -55.546875 26.8125 -54.960938 26.71875 -53.796875 C 26.632812 -52.640625 27.175781 -50.816406 28.34375 -48.328125 L 42.765625 -17.390625 L 55.28125 -44.078125 L 53.546875 -47.71875 C 52.503906 -49.976562 51.546875 -51.671875 50.671875 -52.796875 C 49.804688 -53.929688 48.894531 -54.671875 47.9375 -55.015625 C 46.976562 -55.367188 45.773438 -55.546875 44.328125 -55.546875 L 43.640625 -55.546875 L 43.640625 -57.546875 L 76.328125 -57.546875 L 76.328125 -55.546875 L 72.40625 -55.546875 C 70.4375 -55.546875 69.265625 -54.921875 68.890625 -53.671875 C 68.515625 -52.429688 68.875 -50.648438 69.96875 -48.328125 L 84.40625 -17.390625 C 85.332031 -19.242188 86.429688 -21.515625 87.703125 -24.203125 C 88.984375 -26.898438 90.289062 -29.726562 91.625 -32.6875 C 92.957031 -35.644531 94.1875 -38.5 95.3125 -41.25 C 96.445312 -44 97.359375 -46.414062 98.046875 -48.5 C 98.742188 -50.59375 99.09375 -52.070312 99.09375 -52.9375 C 99.09375 -53.976562 98.582031 -54.671875 97.5625 -55.015625 C 96.550781 -55.367188 95.207031 -55.546875 93.53125 -55.546875 L 93.53125 -57.546875 L 113.171875 -57.546875 L 113.171875 -55.546875 C 111.429688 -55.546875 109.617188 -54.71875 107.734375 -53.0625 C 105.859375 -51.414062 103.960938 -49.1875 102.046875 -46.375 C 100.140625 -43.5625 98.242188 -40.414062 96.359375 -36.9375 C 94.472656 -33.46875 92.660156 -29.890625 90.921875 -26.203125 C 89.179688 -22.523438 87.554688 -18.976562 86.046875 -15.5625 C 84.546875 -12.144531 83.1875 -9.070312 81.96875 -6.34375 C 80.75 -3.625 79.734375 -1.507812 78.921875 0 L 76.328125 0 L 56.671875 -41.109375 L 37.125 0 L 34.6875 0 L 11.90625 -47.71875 C 10.863281 -49.976562 9.90625 -51.671875 9.03125 -52.796875 C 8.164062 -53.929688 7.253906 -54.671875 6.296875 -55.015625 C 5.347656 -55.367188 4.144531 -55.546875 2.6875 -55.546875 L 0.515625 -55.546875 Z M 0.515625 -57.546875 "/></g></g></g><g fill="#304945" fill-opacity="1"><g transform="translate(116.487092, 94.92188)"><g><path d="M 9.90625 -47.984375 C 9.90625 -50.179688 9.703125 -51.816406 9.296875 -52.890625 C 8.890625 -53.960938 8.0625 -54.671875 6.8125 -55.015625 C 5.570312 -55.367188 3.707031 -55.546875 1.21875 -55.546875 L 1.21875 -57.546875 L 51.984375 -57.546875 L 54.421875 -37.90625 L 52.421875 -37.90625 C 50.273438 -44.28125 47.796875 -48.8125 44.984375 -51.5 C 42.171875 -54.195312 38.445312 -55.546875 33.8125 -55.546875 C 30.738281 -55.546875 28.550781 -54.953125 27.25 -53.765625 C 25.945312 -52.578125 25.296875 -50.648438 25.296875 -47.984375 L 25.296875 -29.203125 C 29.640625 -29.203125 33.113281 -30.21875 35.71875 -32.25 C 38.332031 -34.28125 40.101562 -37.582031 41.03125 -42.15625 L 43.03125 -42.15625 L 43.03125 -14.25 L 41.03125 -14.25 C 40.101562 -18.882812 38.332031 -22.203125 35.71875 -24.203125 C 33.113281 -26.203125 29.640625 -27.203125 25.296875 -27.203125 L 25.296875 -9.5625 C 25.296875 -6.894531 25.972656 -4.96875 27.328125 -3.78125 C 28.691406 -2.59375 31.113281 -2 34.59375 -2 C 38.070312 -2 41.015625 -2.59375 43.421875 -3.78125 C 45.828125 -4.96875 47.898438 -6.847656 49.640625 -9.421875 C 51.378906 -12.003906 52.941406 -15.410156 54.328125 -19.640625 L 56.328125 -19.640625 L 53.890625 0 L 1.21875 0 L 1.21875 -2 C 3.707031 -2 5.570312 -2.171875 6.8125 -2.515625 C 8.0625 -2.867188 8.890625 -3.59375 9.296875 -4.6875 C 9.703125 -5.789062 9.90625 -7.414062 9.90625 -9.5625 Z M 9.90625 -47.984375 "/></g></g></g><g fill="#304945" fill-opacity="1"><g transform="translate(173.858444, 94.92188)"><g><path d="M 1.21875 0 L 1.21875 -2 C 3.707031 -2 5.570312 -2.171875 6.8125 -2.515625 C 8.0625 -2.867188 8.890625 -3.59375 9.296875 -4.6875 C 9.703125 -5.789062 9.90625 -7.414062 9.90625 -9.5625 L 9.90625 -47.984375 C 9.90625 -50.179688 9.703125 -51.816406 9.296875 -52.890625 C 8.890625 -53.960938 8.0625 -54.671875 6.8125 -55.015625 C 5.570312 -55.367188 3.707031 -55.546875 1.21875 -55.546875 L 1.21875 -57.546875 L 33.296875 -57.546875 C 40.890625 -57.546875 46.738281 -56.285156 50.84375 -53.765625 C 54.957031 -51.242188 57.015625 -47.632812 57.015625 -42.9375 C 57.015625 -36.332031 52.238281 -31.988281 42.6875 -29.90625 C 48.007812 -29.613281 52.09375 -28.265625 54.9375 -25.859375 C 57.78125 -23.453125 59.203125 -20.109375 59.203125 -15.828125 C 59.203125 -10.722656 57.097656 -6.804688 52.890625 -4.078125 C 48.691406 -1.359375 42.707031 0 34.9375 0 Z M 25.296875 -8.515625 C 25.296875 -5.960938 25.628906 -4.238281 26.296875 -3.34375 C 26.960938 -2.445312 28.191406 -2 29.984375 -2 L 33.296875 -2 C 35.085938 -2 36.707031 -2.59375 38.15625 -3.78125 C 39.601562 -4.96875 40.757812 -6.5625 41.625 -8.5625 C 42.5 -10.5625 42.9375 -12.78125 42.9375 -15.21875 C 42.9375 -17.707031 42.5 -19.953125 41.625 -21.953125 C 40.757812 -23.953125 39.601562 -25.554688 38.15625 -26.765625 C 36.707031 -27.984375 35.085938 -28.59375 33.296875 -28.59375 L 25.296875 -28.59375 Z M 25.296875 -55.546875 L 25.296875 -30.59375 L 31.640625 -30.59375 C 34.304688 -30.59375 36.492188 -31.765625 38.203125 -34.109375 C 39.910156 -36.460938 40.765625 -39.40625 40.765625 -42.9375 C 40.765625 -46.53125 39.910156 -49.53125 38.203125 -51.9375 C 36.492188 -54.34375 34.304688 -55.546875 31.640625 -55.546875 Z M 25.296875 -55.546875 "/></g></g></g><g fill="#304945" fill-opacity="1"><g transform="translate(234.272216, 94.92188)"><g/></g></g><g fill="#304945" fill-opacity="1"><g transform="translate(253.396, 94.92188)"><g><path d="M 1.734375 0 L 1.734375 -19.90625 L 3.734375 -19.90625 C 5.765625 -13.875 8.5625 -9.265625 12.125 -6.078125 C 15.6875 -2.890625 19.875 -1.296875 24.6875 -1.296875 C 27.8125 -1.296875 30.210938 -1.960938 31.890625 -3.296875 C 33.578125 -4.628906 34.421875 -6.546875 34.421875 -9.046875 C 34.421875 -11.304688 33.664062 -13.242188 32.15625 -14.859375 C 30.65625 -16.484375 28.71875 -17.960938 26.34375 -19.296875 C 23.96875 -20.628906 21.429688 -21.945312 18.734375 -23.25 C 16.035156 -24.550781 13.5 -26.015625 11.125 -27.640625 C 8.75 -29.265625 6.804688 -31.207031 5.296875 -33.46875 C 3.796875 -35.726562 3.046875 -38.476562 3.046875 -41.71875 C 3.046875 -45.019531 3.882812 -47.898438 5.5625 -50.359375 C 7.238281 -52.828125 9.597656 -54.753906 12.640625 -56.140625 C 15.691406 -57.535156 19.1875 -58.234375 23.125 -58.234375 C 26.019531 -58.234375 28.476562 -57.941406 30.5 -57.359375 C 32.53125 -56.785156 34.3125 -56.191406 35.84375 -55.578125 C 37.382812 -54.972656 38.796875 -54.671875 40.078125 -54.671875 C 40.941406 -54.671875 41.691406 -54.875 42.328125 -55.28125 C 42.960938 -55.6875 43.6875 -56.441406 44.5 -57.546875 L 46.5 -57.546875 L 46.5 -37.640625 L 44.5 -37.640625 C 42.53125 -43.492188 39.878906 -48.054688 36.546875 -51.328125 C 33.210938 -54.597656 29.550781 -56.234375 25.5625 -56.234375 C 22.894531 -56.234375 20.789062 -55.523438 19.25 -54.109375 C 17.71875 -52.691406 16.953125 -50.796875 16.953125 -48.421875 C 16.953125 -46.160156 17.703125 -44.21875 19.203125 -42.59375 C 20.710938 -40.96875 22.65625 -39.503906 25.03125 -38.203125 C 27.40625 -36.898438 29.941406 -35.597656 32.640625 -34.296875 C 35.335938 -32.992188 37.875 -31.53125 40.25 -29.90625 C 42.625 -28.28125 44.5625 -26.335938 46.0625 -24.078125 C 47.570312 -21.816406 48.328125 -19.066406 48.328125 -15.828125 C 48.328125 -10.785156 46.359375 -6.769531 42.421875 -3.78125 C 38.484375 -0.789062 33.148438 0.703125 26.421875 0.703125 C 23.117188 0.703125 20.351562 0.398438 18.125 -0.203125 C 15.894531 -0.816406 14.007812 -1.414062 12.46875 -2 C 10.9375 -2.582031 9.503906 -2.875 8.171875 -2.875 C 7.296875 -2.875 6.539062 -2.671875 5.90625 -2.265625 C 5.269531 -1.859375 4.546875 -1.101562 3.734375 0 Z M 1.734375 0 "/></g></g></g><g fill="#304945" fill-opacity="1"><g transform="translate(303.987101, 94.92188)"><g><path d="M 0.515625 -37.90625 L 2.953125 -57.546875 L 59.890625 -57.546875 L 62.328125 -37.90625 L 60.328125 -37.90625 C 58.179688 -44.28125 55.832031 -48.8125 53.28125 -51.5 C 50.726562 -54.195312 47.921875 -55.546875 44.859375 -55.546875 C 42.828125 -55.546875 41.359375 -54.960938 40.453125 -53.796875 C 39.554688 -52.640625 39.109375 -50.703125 39.109375 -47.984375 L 39.109375 -9.5625 C 39.109375 -7.414062 39.328125 -5.789062 39.765625 -4.6875 C 40.203125 -3.59375 41.054688 -2.867188 42.328125 -2.515625 C 43.609375 -2.171875 45.492188 -2 47.984375 -2 L 47.984375 0 L 15.03125 0 L 15.03125 -2 C 17.53125 -2 19.398438 -2.171875 20.640625 -2.515625 C 21.890625 -2.867188 22.71875 -3.59375 23.125 -4.6875 C 23.53125 -5.789062 23.734375 -7.414062 23.734375 -9.5625 L 23.734375 -47.984375 C 23.734375 -50.703125 23.28125 -52.640625 22.375 -53.796875 C 21.476562 -54.960938 20.019531 -55.546875 18 -55.546875 C 14.976562 -55.546875 12.175781 -54.195312 9.59375 -51.5 C 7.019531 -48.8125 4.660156 -44.28125 2.515625 -37.90625 Z M 0.515625 -37.90625 "/></g></g></g><g fill="#304945" fill-opacity="1"><g transform="translate(366.834809, 94.92188)"><g><path d="M 1.21875 -57.546875 L 33.984375 -57.546875 L 33.984375 -55.546875 C 31.492188 -55.546875 29.625 -55.367188 28.375 -55.015625 C 27.132812 -54.671875 26.3125 -53.960938 25.90625 -52.890625 C 25.5 -51.816406 25.296875 -50.179688 25.296875 -47.984375 L 25.296875 -21.203125 C 25.296875 -14.191406 26.320312 -9.238281 28.375 -6.34375 C 30.4375 -3.445312 33.550781 -2 37.71875 -2 C 42.1875 -2 45.835938 -3.519531 48.671875 -6.5625 C 51.515625 -9.601562 52.9375 -14.484375 52.9375 -21.203125 L 52.9375 -47.984375 C 52.9375 -50.179688 52.734375 -51.816406 52.328125 -52.890625 C 51.921875 -53.960938 51.09375 -54.671875 49.84375 -55.015625 C 48.601562 -55.367188 46.738281 -55.546875 44.25 -55.546875 L 44.25 -57.546875 L 63.625 -57.546875 L 63.625 -55.546875 C 61.132812 -55.546875 59.265625 -55.367188 58.015625 -55.015625 C 56.773438 -54.671875 55.953125 -53.960938 55.546875 -52.890625 C 55.140625 -51.816406 54.9375 -50.179688 54.9375 -47.984375 L 54.9375 -21.734375 C 54.9375 -17.097656 54.269531 -13.097656 52.9375 -9.734375 C 51.601562 -6.367188 49.367188 -3.785156 46.234375 -1.984375 C 43.109375 -0.191406 38.878906 0.703125 33.546875 0.703125 C 28.972656 0.703125 24.90625 -0.0507812 21.34375 -1.5625 C 17.78125 -3.070312 14.984375 -5.460938 12.953125 -8.734375 C 10.921875 -12.003906 9.90625 -16.335938 9.90625 -21.734375 L 9.90625 -47.984375 C 9.90625 -50.179688 9.703125 -51.816406 9.296875 -52.890625 C 8.890625 -53.960938 8.0625 -54.671875 6.8125 -55.015625 C 5.570312 -55.367188 3.707031 -55.546875 1.21875 -55.546875 Z M 1.21875 -57.546875 "/></g></g></g><g fill="#304945" fill-opacity="1"><g transform="translate(431.681821, 94.92188)"><g><path d="M 1.21875 -55.546875 L 1.21875 -57.546875 L 38.25 -57.546875 C 43.75 -57.546875 48.46875 -56.367188 52.40625 -54.015625 C 56.351562 -51.671875 59.367188 -48.367188 61.453125 -44.109375 C 63.535156 -39.847656 64.578125 -34.820312 64.578125 -29.03125 C 64.578125 -23.289062 63.535156 -18.234375 61.453125 -13.859375 C 59.367188 -9.484375 56.351562 -6.078125 52.40625 -3.640625 C 48.46875 -1.210938 43.75 0 38.25 0 L 1.21875 0 L 1.21875 -2 C 3.707031 -2 5.570312 -2.171875 6.8125 -2.515625 C 8.0625 -2.867188 8.890625 -3.59375 9.296875 -4.6875 C 9.703125 -5.789062 9.90625 -7.414062 9.90625 -9.5625 L 9.90625 -47.984375 C 9.90625 -50.179688 9.703125 -51.816406 9.296875 -52.890625 C 8.890625 -53.960938 8.0625 -54.671875 6.8125 -55.015625 C 5.570312 -55.367188 3.707031 -55.546875 1.21875 -55.546875 Z M 25.296875 -8.515625 C 25.296875 -5.960938 25.628906 -4.238281 26.296875 -3.34375 C 26.960938 -2.445312 28.191406 -2 29.984375 -2 L 34.25 -2 C 36.394531 -2 38.320312 -2.75 40.03125 -4.25 C 41.738281 -5.757812 43.210938 -7.789062 44.453125 -10.34375 C 45.703125 -12.894531 46.660156 -15.773438 47.328125 -18.984375 C 47.992188 -22.203125 48.328125 -25.550781 48.328125 -29.03125 C 48.328125 -32.507812 47.992188 -35.828125 47.328125 -38.984375 C 46.660156 -42.140625 45.703125 -44.960938 44.453125 -47.453125 C 43.210938 -49.953125 41.738281 -51.925781 40.03125 -53.375 C 38.320312 -54.820312 36.394531 -55.546875 34.25 -55.546875 L 25.296875 -55.546875 Z M 25.296875 -8.515625 "/></g></g></g><g fill="#304945" fill-opacity="1"><g transform="translate(498.875843, 94.92188)"><g><path d="M 1.21875 -55.546875 L 1.21875 -57.546875 L 33.984375 -57.546875 L 33.984375 -55.546875 C 31.492188 -55.546875 29.625 -55.367188 28.375 -55.015625 C 27.132812 -54.671875 26.3125 -53.960938 25.90625 -52.890625 C 25.5 -51.816406 25.296875 -50.179688 25.296875 -47.984375 L 25.296875 -9.5625 C 25.296875 -7.414062 25.5 -5.789062 25.90625 -4.6875 C 26.3125 -3.59375 27.132812 -2.867188 28.375 -2.515625 C 29.625 -2.171875 31.492188 -2 33.984375 -2 L 33.984375 0 L 1.21875 0 L 1.21875 -2 C 3.707031 -2 5.570312 -2.171875 6.8125 -2.515625 C 8.0625 -2.867188 8.890625 -3.59375 9.296875 -4.6875 C 9.703125 -5.789062 9.90625 -7.414062 9.90625 -9.5625 L 9.90625 -47.984375 C 9.90625 -50.179688 9.703125 -51.816406 9.296875 -52.890625 C 8.890625 -53.960938 8.0625 -54.671875 6.8125 -55.015625 C 5.570312 -55.367188 3.707031 -55.546875 1.21875 -55.546875 Z M 1.21875 -55.546875 "/></g></g></g><g fill="#304945" fill-opacity="1"><g transform="translate(534.080991, 94.92188)"><g><path d="M 2.609375 -28.765625 C 2.609375 -34.210938 3.691406 -39.164062 5.859375 -43.625 C 8.035156 -48.09375 11.269531 -51.644531 15.5625 -54.28125 C 19.851562 -56.914062 25.179688 -58.234375 31.546875 -58.234375 C 37.921875 -58.234375 43.253906 -56.914062 47.546875 -54.28125 C 51.835938 -51.644531 55.066406 -48.09375 57.234375 -43.625 C 59.410156 -39.164062 60.5 -34.210938 60.5 -28.765625 C 60.5 -23.316406 59.410156 -18.363281 57.234375 -13.90625 C 55.066406 -9.445312 51.835938 -5.894531 47.546875 -3.25 C 43.253906 -0.613281 37.921875 0.703125 31.546875 0.703125 C 25.179688 0.703125 19.851562 -0.613281 15.5625 -3.25 C 11.269531 -5.894531 8.035156 -9.445312 5.859375 -13.90625 C 3.691406 -18.363281 2.609375 -23.316406 2.609375 -28.765625 Z M 31.546875 -56.234375 C 29.171875 -56.234375 27.171875 -55.46875 25.546875 -53.9375 C 23.929688 -52.40625 22.628906 -50.316406 21.640625 -47.671875 C 20.660156 -45.035156 19.953125 -42.09375 19.515625 -38.84375 C 19.078125 -35.601562 18.859375 -32.242188 18.859375 -28.765625 C 18.859375 -25.296875 19.078125 -21.9375 19.515625 -18.6875 C 19.953125 -15.445312 20.660156 -12.503906 21.640625 -9.859375 C 22.628906 -7.222656 23.929688 -5.132812 25.546875 -3.59375 C 27.171875 -2.0625 29.171875 -1.296875 31.546875 -1.296875 C 33.929688 -1.296875 35.929688 -2.0625 37.546875 -3.59375 C 39.171875 -5.132812 40.472656 -7.222656 41.453125 -9.859375 C 42.441406 -12.503906 43.15625 -15.445312 43.59375 -18.6875 C 44.03125 -21.9375 44.25 -25.296875 44.25 -28.765625 C 44.25 -32.242188 44.03125 -35.601562 43.59375 -38.84375 C 43.15625 -42.09375 42.441406 -45.035156 41.453125 -47.671875 C 40.472656 -50.316406 39.171875 -52.40625 37.546875 -53.9375 C 35.929688 -55.46875 33.929688 -56.234375 31.546875 -56.234375 Z M 31.546875 -56.234375 "/></g></g></g><g clip-path="url(#e71cb407fe)"><g clip-path="url(#066faafaab)"><path fill="#ffffff" d="M 334.136719 54.519531 L 518.347656 54.519531 L 518.347656 79.261719 L 334.136719 79.261719 Z M 334.136719 54.519531 " fill-opacity="1" fill-rule="nonzero"/></g></g><g fill="#737373" fill-opacity="1"><g transform="translate(358.190644, 75.937505)"><g><path d="M 2.25 0 L 2.25 -18.5 L 13.1875 -18.5 L 13.1875 -15.9375 L 4.90625 -15.9375 L 4.90625 -10.5 L 12.234375 -10.5 L 12.234375 -8.046875 L 4.90625 -8.046875 L 4.90625 0 Z M 2.25 0 "/></g></g></g><g fill="#737373" fill-opacity="1"><g transform="translate(392.913478, 75.937505)"><g><path d="M 8.3125 -16.0625 L 8.3125 -2.46875 L 11.71875 -2.46875 L 11.71875 0 L 2.25 0 L 2.25 -2.46875 L 5.65625 -2.46875 L 5.65625 -16.0625 L 2.25 -16.0625 L 2.25 -18.5 L 11.71875 -18.5 L 11.71875 -16.0625 Z M 8.3125 -16.0625 "/></g></g></g><g fill="#737373" fill-opacity="1"><g transform="translate(427.819761, 75.937505)"><g><path d="M 16.796875 -18.53125 L 9.359375 0.046875 L 7.421875 0.046875 L -0.03125 -18.53125 L 2.859375 -18.53125 L 8.390625 -4.609375 L 13.96875 -18.53125 Z M 16.796875 -18.53125 "/></g></g></g><g fill="#737373" fill-opacity="1"><g transform="translate(465.372841, 75.937505)"><g><path d="M 13.4375 -2.640625 L 13.4375 0 L 2.25 0 L 2.25 -18.53125 L 13.421875 -18.53125 L 13.421875 -15.875 L 4.921875 -15.875 L 4.921875 -10.71875 L 13.234375 -10.71875 L 13.234375 -8.046875 L 4.921875 -8.046875 L 4.921875 -2.640625 Z M 13.4375 -2.640625 "/></g></g></g></svg>